<?xml version="1.0" encoding="utf-8"?>
<svg version="1.1" id="Capa_1" x="0px" y="0px" width="99.012px" height="99.012px" viewBox="0 0 99.012 99.012" style="enable-background:new 0 0 99.012 99.012;" xmlns="http://www.w3.org/2000/svg">
  <defs>
    <pattern id="pattern-0" x="0" y="0" width="25" height="25" patternUnits="userSpaceOnUse" viewBox="0 0 100 100">
      <rect x="0" y="0" width="50" height="100" style="fill: black;"/>
    </pattern>
  </defs>
  <g transform="matrix(0.64422, -0.033762, 0.034424, 0.656852, 7.699511, 26.948105)">
    <g>
      <path d="M25.08,15.648c-0.478-0.478-1.135-0.742-1.805-0.723c-0.675,0.017-1.314,0.309-1.768,0.808 c-14.829,16.325-6.762,51.623-5.916,55.115L0.723,85.717C0.26,86.18,0,86.808,0,87.463c0,0.654,0.26,1.283,0.723,1.746 l8.958,8.957c0.482,0.48,1.114,0.723,1.746,0.723c0.631,0,1.264-0.24,1.745-0.723l14.865-14.864 c7.237,1.859,16.289,2.968,24.28,2.968c9.599,0,22.739-1.543,30.836-8.886c0.5-0.454,0.793-1.093,0.809-1.769 c0.018-0.676-0.245-1.328-0.723-1.805L25.08,15.648z"/>
      <path d="M46.557,30.345c0.482,0.482,1.114,0.723,1.746,0.723c0.632,0,1.264-0.241,1.746-0.724l18.428-18.428 c1.305-1.305,2.023-3.04,2.023-4.885c0-1.846-0.719-3.582-2.023-4.886c-1.305-1.305-3.039-2.022-4.885-2.022 c-1.845,0-3.581,0.718-4.887,2.022L40.277,20.574c-0.964,0.964-0.964,2.527,0,3.492L46.557,30.345z"/>
      <path d="M96.99,30.661c-1.305-1.305-3.039-2.024-4.885-2.024c-1.847,0-3.582,0.718-4.886,2.023L68.79,49.089 c-0.464,0.463-0.724,1.091-0.724,1.746s0.26,1.282,0.724,1.746l6.28,6.278c0.481,0.482,1.113,0.724,1.746,0.724 c0.631,0,1.264-0.241,1.746-0.724l18.43-18.429C99.686,37.735,99.686,33.353,96.99,30.661z"/>
      <path d="M 31.098 35.481 C 30.833 35.222 30.469 35.078 30.098 35.089 C 29.724 35.098 29.37 35.256 29.119 35.527 C 20.906 44.395 24.471 61.866 25.842 65.466 C 27.498 69.814 28.376 70.692 32.736 72.231 C 36.744 73.241 41.758 73.843 46.184 73.843 C 51.5 73.843 58.778 73.005 63.263 69.016 C 63.539 68.77 63.702 68.423 63.711 68.055 C 63.721 67.688 63.575 67.334 63.31 67.075 L 31.098 35.481 Z" style="fill: rgb(255, 255, 255);"/>
    </g>
  </g>
  <g transform="matrix(1, 0, 0, 1, 3.266759, 0.251289)"/>
  <g transform="matrix(1, 0, 0, 1, 3.266759, 0.251289)"/>
  <g transform="matrix(1, 0, 0, 1, 3.266759, 0.251289)"/>
  <g transform="matrix(1, 0, 0, 1, 3.266759, 0.251289)"/>
  <g transform="matrix(1, 0, 0, 1, 3.266759, 0.251289)"/>
  <g transform="matrix(1, 0, 0, 1, 3.266759, 0.251289)"/>
  <g transform="matrix(1, 0, 0, 1, 3.266759, 0.251289)"/>
  <g transform="matrix(1, 0, 0, 1, 3.266759, 0.251289)"/>
  <g transform="matrix(1, 0, 0, 1, 3.266759, 0.251289)"/>
  <g transform="matrix(1, 0, 0, 1, 3.266759, 0.251289)"/>
  <g transform="matrix(1, 0, 0, 1, 3.266759, 0.251289)"/>
  <g transform="matrix(1, 0, 0, 1, 3.266759, 0.251289)"/>
  <g transform="matrix(1, 0, 0, 1, 3.266759, 0.251289)"/>
  <g transform="matrix(1, 0, 0, 1, 3.266759, 0.251289)"/>
  <g transform="matrix(1, 0, 0, 1, 3.266759, 0.251289)"/>
  <path style="stroke: rgb(0, 0, 0); fill: none; stroke-linecap: round;" d="M 44.933 14.556 C 54.727 14.556 62.826 22.562 63.407 32.821" transform="matrix(0.99863, -0.052336, 0.052336, 0.99863, -1.165523, 2.867505)"/>
  <path style="fill: none; stroke: rgb(0, 0, 0); stroke-linecap: round;" d="M 64.37 32.028 C 74.52 32.028 82.914 39.736 83.517 49.613" transform="matrix(0.99863, -0.052336, 0.052336, 0.99863, -2.035044, 3.92585)"/>
</svg>
